<?xml version="1.0" encoding="utf-8"?>
<!-- Generator: Adobe Illustrator 26.2.1, SVG Export Plug-In . SVG Version: 6.00 Build 0)  -->
<svg version="1.1" id="Layer_1" xmlns="http://www.w3.org/2000/svg" xmlns:xlink="http://www.w3.org/1999/xlink" x="0px" y="0px"
	 viewBox="0 0 32 32" style="enable-background:new 0 0 32 32;" xml:space="preserve">
<style type="text/css">
	.st0{fill:#4F39F6;}
	.st1{fill:#FFFFFF;}
</style>
<g>
	<path class="st0" d="M26.5,32H5.5c-3,0-5.5-2.4-5.5-5.5V5.5C0,2.4,2.4,0,5.5,0h21.1c3,0,5.5,2.4,5.5,5.5v21.1
		C32,29.6,29.6,32,26.5,32z"/>
	<g>
		<path class="st1" d="M16,4.8L16,4.8c-5.3,0-9.6,4.3-9.6,9.6v6.3h0.2c2.2,0,4,1.8,4,4v2.6h1.8v-1c0-0.8,0.7-1.5,1.5-1.5l0,0
			c0.8,0,1.5,0.7,1.5,1.5v1h1.1v-1c0-0.8,0.7-1.5,1.5-1.5l0,0c0.8,0,1.5,0.7,1.5,1.5v1h1.8v-2.6c0-2.2,1.8-4,4-4h0.2v-6.3
			C25.6,9.1,21.3,4.8,16,4.8z M11.1,16.9c-1.4,0-2.5-1.1-2.5-2.5c0-1.4,1.1-2.5,2.5-2.5c1.4,0,2.5,1.1,2.5,2.5S12.5,16.9,11.1,16.9z
			 M18,18.8c0,0.7-0.6,1.3-1.3,1.3h-1.5c-0.7,0-1.3-0.6-1.3-1.3l0,0c0-0.7,0.6-1.3,1.3-1.3h1.5C17.4,17.6,18,18.1,18,18.8L18,18.8z
			 M20.9,16.9c-1.4,0-2.5-1.1-2.5-2.5c0-1.4,1.1-2.5,2.5-2.5c1.4,0,2.5,1.1,2.5,2.5S22.3,16.9,20.9,16.9z"/>
	</g>
</g>
</svg>
