<?xml version="1.0" encoding="utf-8"?>
<!-- Generator: Adobe Illustrator 26.2.1, SVG Export Plug-In . SVG Version: 6.00 Build 0)  -->
<svg version="1.1" id="Layer_1" xmlns="http://www.w3.org/2000/svg" xmlns:xlink="http://www.w3.org/1999/xlink" x="0px" y="0px"
	 viewBox="0 0 16 16" style="enable-background:new 0 0 16 16;" xml:space="preserve">
<style type="text/css">
	.st0{fill:#4F39F6;}
	.st1{fill:#FFFFFF;}
</style>
<g>
	<path class="st0" d="M13.3,16H2.7C1.2,16,0,14.8,0,13.3V2.7C0,1.2,1.2,0,2.7,0h10.5C14.8,0,16,1.2,16,2.7v10.5
		C16,14.8,14.8,16,13.3,16z"/>
	<g>
		<path class="st1" d="M8,2.4L8,2.4c-2.6,0-4.8,2.1-4.8,4.8v3.1h0.1c1.1,0,2,0.9,2,2v1.3h0.9v-0.5c0-0.4,0.3-0.8,0.8-0.8l0,0
			c0.4,0,0.8,0.3,0.8,0.8v0.5h0.6v-0.5c0-0.4,0.3-0.8,0.8-0.8l0,0c0.4,0,0.8,0.3,0.8,0.8v0.5h0.9v-1.3c0-1.1,0.9-2,2-2h0.1V7.2
			C12.8,4.5,10.6,2.4,8,2.4z M5.6,8.5c-0.7,0-1.2-0.6-1.2-1.2C4.3,6.5,4.9,6,5.6,6c0.7,0,1.2,0.6,1.2,1.2S6.2,8.5,5.6,8.5z M9,9.4
			c0,0.3-0.3,0.6-0.6,0.6H7.6C7.3,10.1,7,9.8,7,9.4l0,0c0-0.3,0.3-0.6,0.6-0.6h0.7C8.7,8.8,9,9.1,9,9.4L9,9.4z M10.4,8.5
			c-0.7,0-1.2-0.6-1.2-1.2C9.2,6.5,9.8,6,10.4,6c0.7,0,1.2,0.6,1.2,1.2S11.1,8.5,10.4,8.5z"/>
	</g>
</g>
</svg>
