<?xml version="1.0" encoding="utf-8"?>
<!-- Generator: Adobe Illustrator 26.2.1, SVG Export Plug-In . SVG Version: 6.00 Build 0)  -->
<svg version="1.1" id="Layer_1" xmlns="http://www.w3.org/2000/svg" xmlns:xlink="http://www.w3.org/1999/xlink" x="0px" y="0px"
	 viewBox="0 0 180 180" style="enable-background:new 0 0 180 180;" xml:space="preserve">
<style type="text/css">
	.st0{fill:#4F39F6;}
	.st1{fill:#FFFFFF;}
</style>
<path class="st0" d="M149.3,180H30.7C13.7,180,0,166.3,0,149.3V30.7C0,13.7,13.7,0,30.7,0h118.6c17,0,30.7,13.7,30.7,30.7v118.6
	C180,166.3,166.3,180,149.3,180z"/>
<g>
	<path class="st1" d="M90,27L90,27c-29.8,0-54,24.2-54,54v35.2h1.2c12.3,0,22.2,10,22.2,22.2V153h10.1v-5.8c0-4.8,3.9-8.6,8.6-8.6
		l0,0c4.8,0,8.6,3.9,8.6,8.6v5.8h6.2v-5.8c0-4.8,3.9-8.6,8.6-8.6l0,0c4.8,0,8.6,3.9,8.6,8.6v5.8h10.1v-14.6
		c0-12.3,10-22.2,22.2-22.2h1.2V80.9C144,51.1,119.8,27,90,27z M62.6,95.1c-7.7,0-14-6.3-14-14c0-7.7,6.3-14,14-14
		c7.7,0,14,6.3,14,14S70.3,95.1,62.6,95.1z M101.3,106c0,3.9-3.2,7.1-7.1,7.1h-8.3c-3.9,0-7.1-3.2-7.1-7.1l0,0
		c0-3.9,3.2-7.1,7.1-7.1h8.3C98.1,98.9,101.3,102.1,101.3,106L101.3,106z M117.5,95.1c-7.7,0-14-6.3-14-14c0-7.7,6.3-14,14-14
		c7.7,0,14,6.3,14,14S125.2,95.1,117.5,95.1z"/>
</g>
</svg>
