<?xml version="1.0" encoding="utf-8"?>
<!-- Generator: Adobe Illustrator 26.2.1, SVG Export Plug-In . SVG Version: 6.00 Build 0)  -->
<svg version="1.1" id="Line_1" xmlns="http://www.w3.org/2000/svg" xmlns:xlink="http://www.w3.org/1999/xlink" x="0px" y="0px"
	 viewBox="0 0 512 512" style="enable-background:new 0 0 512 512;" xml:space="preserve">
<style type="text/css">
	.st0{fill:#FFFFFF;}
</style>
<g>
	<g>
		<path class="st0" d="M486.4,102.4H25.6C11.4,102.4,0,90.9,0,76.8s11.4-25.7,25.6-25.7h460.9c14.2,0,25.6,11.5,25.6,25.6
			S500.6,102.4,486.4,102.4z"/>
	</g>
	<g>
		<path class="st0" d="M486.4,460.9H25.6C11.4,460.9,0,449.5,0,435.3s11.5-25.6,25.6-25.6h460.9c14.2,0,25.6,11.4,25.6,25.6
			C512,449.4,500.6,460.9,486.4,460.9z"/>
	</g>
	<g>
		<path class="st0" d="M486.4,281.6H25.6C11.4,281.6,0,270,0,256c0-14,11.5-25.6,25.6-25.6h460.9c14.2,0,25.6,11.5,25.6,25.6
			C512,270,500.6,281.6,486.4,281.6z"/>
	</g>
</g>
</svg>
