<?xml version="1.0" encoding="utf-8"?>
<!-- Generator: Adobe Illustrator 26.2.1, SVG Export Plug-In . SVG Version: 6.00 Build 0)  -->
<svg version="1.1" id="Layer_1" xmlns="http://www.w3.org/2000/svg" xmlns:xlink="http://www.w3.org/1999/xlink" x="0px" y="0px"
	 viewBox="0 0 1027.6 1200" style="enable-background:new 0 0 1027.6 1200;" xml:space="preserve">
<style type="text/css">
	.st0{fill:#4F39F6;}
</style>
<g>
	<path class="st0" d="M513.8,0L513.8,0C230,0,0,230,0,513.8v335.5h11.5c117.1,0,211.9,94.9,211.9,211.9V1200h96v-55.5
		c0-45.5,36.9-82.3,82.3-82.3h0c45.5,0,82.3,36.9,82.3,82.3v55.5h59.4v-55.5c0-45.5,36.9-82.3,82.3-82.3h0
		c45.5,0,82.3,36.9,82.3,82.3v55.5h96v-138.7c0-117.1,94.9-211.9,211.9-211.9h11.5V513.8C1027.6,230,797.6,0,513.8,0z M252.3,648.3
		c-73.5,0-133.2-59.6-133.2-133.2c0-73.5,59.6-133.2,133.2-133.2c73.5,0,133.2,59.6,133.2,133.2
		C385.5,588.7,325.8,648.3,252.3,648.3z M621.1,752.4c0,37.3-30.2,67.6-67.6,67.6h-79.5c-37.3,0-67.6-30.2-67.6-67.6v0
		c0-37.3,30.2-67.6,67.6-67.6h79.5C590.9,684.8,621.1,715.1,621.1,752.4L621.1,752.4z M775.3,648.3c-73.5,0-133.2-59.6-133.2-133.2
		c0-73.5,59.6-133.2,133.2-133.2c73.5,0,133.2,59.6,133.2,133.2C908.5,588.7,848.9,648.3,775.3,648.3z"/>
</g>
</svg>
