<?xml version="1.0" encoding="utf-8"?>
<!-- Generator: Adobe Illustrator 26.2.1, SVG Export Plug-In . SVG Version: 6.00 Build 0)  -->
<svg version="1.1" id="Layer_1" xmlns="http://www.w3.org/2000/svg" xmlns:xlink="http://www.w3.org/1999/xlink" x="0px" y="0px"
	 viewBox="0 0 5128.3 1200" style="enable-background:new 0 0 5128.3 1200;" xml:space="preserve">
<style type="text/css">
	.st0{fill:#FFFFFF;}
</style>
<g>
	<path class="st0" d="M513.8,0L513.8,0C230,0,0,230,0,513.8v335.5h11.5c117.1,0,211.9,94.9,211.9,211.9V1200h96v-55.5
		c0-45.5,36.9-82.3,82.3-82.3l0,0c45.5,0,82.3,36.9,82.3,82.3v55.5h59.4v-55.5c0-45.5,36.9-82.3,82.3-82.3l0,0
		c45.5,0,82.3,36.9,82.3,82.3v55.5h96v-138.7c0-117.1,94.9-211.9,211.9-211.9h11.5V513.8C1027.6,230,797.6,0,513.8,0z M252.3,648.3
		c-73.5,0-133.2-59.6-133.2-133.2c0-73.5,59.6-133.2,133.2-133.2c73.5,0,133.2,59.6,133.2,133.2S325.8,648.3,252.3,648.3z
		 M621.1,752.4c0,37.3-30.2,67.6-67.6,67.6H474c-37.3,0-67.6-30.2-67.6-67.6l0,0c0-37.3,30.2-67.6,67.6-67.6h79.5
		C590.9,684.8,621.1,715.1,621.1,752.4L621.1,752.4z M775.3,648.3c-73.5,0-133.2-59.6-133.2-133.2c0-73.5,59.6-133.2,133.2-133.2
		c73.5,0,133.2,59.6,133.2,133.2S848.9,648.3,775.3,648.3z"/>
</g>
<g>
	<path class="st0" d="M1406.3,427.8V319.3h472.4v108.5h-169.9v452.8h-132.6V427.8H1406.3z"/>
	<path class="st0" d="M2080.3,319.3v561.3h-133V319.3H2080.3z"/>
	<path class="st0" d="M2167.7,880.7V319.3h207.2l71.6,218.5c3.8,12.8,8.1,29.5,13,50.1s9.9,42.8,14.9,66.7s9.8,47,14.3,69.3
		c4.3-22.3,8.9-45.4,13.8-69.1c4.9-23.7,9.8-46,14.7-66.7s9.2-37.5,13-50.3l70.4-218.5h207.6v561.3h-133.7V638.8
		c0-14.3,0.3-33.1,0.9-56.3c0.6-23.2,1.3-48.4,2.1-75.5c0.8-27.1,1.4-53.2,1.9-78.4c-6.3,26.6-12.9,53.4-19.8,80.2
		c-6.9,26.9-13.5,51.7-19.8,74.4s-11.7,41.2-16.2,55.6l-79.9,241.9h-111.1l-81-241.9c-4.3-13.8-9.5-31.6-15.8-53.5
		c-6.3-21.8-12.9-45.8-19.8-71.8c-6.9-26-13.5-52.2-19.8-78.5c0.5,24.6,1.1,50,1.9,76.1c0.8,26.1,1.4,50.4,2.1,72.9
		c0.6,22.5,0.9,40.8,0.9,54.8v241.9L2167.7,880.7L2167.7,880.7z"/>
	<path class="st0" d="M2895.5,880.7V319.3H3285v108.5h-256.5v116h236.2V650h-236.2v122.1h256.2v108.5h-389.2V880.7z"/>
	<path class="st0" d="M3390.2,880.7V319.6h67.9v500.8H3719v60.3H3390.2z"/>
	<path class="st0" d="M3824.2,880.7V319.6h338.6v60.3h-270.7v189.6h253.2v60.3h-253.2v190.7h275.1v60.3L3824.2,880.7L3824.2,880.7z"
		/>
	<path class="st0" d="M4285.6,880.7V319.6H4622v60.3h-268.5v189.6h243.3v60.3h-243.3v251L4285.6,880.7L4285.6,880.7z"/>
	<path class="st0" d="M4707.5,379.8v-60.3h420.8v60.3h-176.4v500.8H4884V379.8H4707.5z"/>
</g>
</svg>
